<!DOCTYPE svg PUBLIC "-//W3C//DTD SVG 1.1//EN" "http://www.w3.org/Graphics/SVG/1.1/DTD/svg11.dtd">
<!-- Uploaded to: SVG Repo, www.svgrepo.com, Transformed by: SVG Repo Mixer Tools -->
<svg fill="#C4A47C" height="800px" width="800px" version="1.1" xmlns="http://www.w3.org/2000/svg" viewBox="0 0 297 297" xmlns:xlink="http://www.w3.org/1999/xlink" enable-background="new 0 0 297 297">
<g id="SVGRepo_bgCarrier" stroke-width="0"/>
<g id="SVGRepo_tracerCarrier" stroke-linecap="round" stroke-linejoin="round"/>
<g id="SVGRepo_iconCarrier"> <g> <path d="m119.718,58.175h-92.466l-14.21,184.732h120.886l-14.21-184.732zm-46.744,137.482c-12.999,0-22.434-8.685-22.434-20.651 0-14.593 14.574-40.43 16.236-43.328 1.273-2.221 3.638-3.59 6.197-3.59 2.56,0 4.925,1.369 6.197,3.59 1.662,2.898 16.236,28.736 16.236,43.328 0.002,11.966-9.433,20.651-22.432,20.651z"/> <path d="m64.829,175.006c0,6.055 6.785,6.362 8.145,6.362 1.36,0 8.145-0.307 8.145-6.362 0-5.436-3.9-15.403-8.143-24.311-4.245,8.915-8.147,18.886-8.147,24.311z"/> <path d="M118.902,11.227c0-5.636-4.57-10.206-10.206-10.206H38.273c-5.636,0-10.206,4.57-10.206,10.206v32.66h90.835V11.227z"/> <path d="m135.027,257.196h-123.085l-2.217,28.816c-0.218,2.835 0.756,5.631 2.688,7.717 1.932,2.085 4.646,3.271 7.488,3.271h107.165c2.843,0 5.557-1.186 7.488-3.271 1.932-2.086 2.906-4.883 2.688-7.717l-2.215-28.816z"/> <path d="m192.333,273.528c0.912,12.509 10.39,21.941 22.045,21.941h7.559c11.655,0 21.133-9.433 22.045-21.941l12.131-166.363h-75.91l12.13,166.363z"/> <path d="M277.098,0c-5.636,0-10.206,4.57-10.206,10.206V33.68h-9.058V10.206C257.834,4.57,253.264,0,247.628,0 c-5.636,0-10.206,4.57-10.206,10.206V33.68h-9.058V10.206C228.364,4.57,223.794,0,218.157,0s-10.206,4.57-10.206,10.206V33.68 h-9.058V10.206C198.893,4.57,194.323,0,188.687,0c-5.636,0-10.206,4.57-10.206,10.206V33.68h-9.058V10.206 C169.423,4.57,164.853,0,159.217,0S149.01,4.57,149.01,10.206v48.706c0,17.022,11.314,31.186,26.126,33.964h86.041 c14.813-2.778,26.126-16.943,26.126-33.964V10.206C287.304,4.57,282.734,0,277.098,0z"/> </g> </g>
</svg>